<svg xmlns="http://www.w3.org/2000/svg" viewBox="0 0 419.7 69.5" xml:space="preserve" style="fill:white" >
  <switch>
    <g>
      <polygon points="58.4,9.8 49.6,14.9 49.6,29.7 49.6,33.7 66.6,23.9"></polygon>
      <polygon points="8.2,57.7 17,52.6 17,37.8 17,33.7 0,43.5"></polygon>
      <polygon points="49.6,37.8 49.6,52.6 58.4,57.7 66.6,43.5 49.6,33.7"></polygon>
      <polygon points="0,23.9 17,33.7 17,29.7 17,14.9 8.2,9.8"></polygon>
      <rect x="25.1" y="37.8" width="16.3" height="29.7"></rect>
      <rect x="25.1" width="16.3" height="29.7"></rect>
      <g>
        <path d="M130.8 57.9h6.7V28.2c0-6.4-2.7-10.7-10.4-10.7-8.7 0-10.9 5.1-10.9 10.8v.5h7.8v-.6c0-2.5.5-4.3 2.9-4.3 2.4 0 2.8 1.7 2.8 4.9v5.1c-.3 0-.7 0-.9 0-7.2 0-13.8 2.6-13.8 12.4V47c0 6 2.4 11.5 8.4 11.5 3.5 0 5.3-1.4 6.7-3.8L130.8 57.9zM129.8 44.4c0 5.4-1.2 7.2-3.8 7.2-2.5 0-3.5-2-3.5-4.8v-.6c0-5 2.4-6.3 6-6.3.2 0 1 0 1.3 0V44.4zM153.8 47.3h-.2c-.3-5.1-2.3-16.1-4.4-29.1h-8.5l9 40.2c-.7 4.2-1.4 4-3.9 4h-2.6v7.1c1.3.1 2.5.1 3.8.1 5 0 8.7-.5 10.6-10.8l8.9-40.5h-7.9C156.1 33.7 154.5 40.4 153.8 47.3zM180.5 17.5c-9.8 0-11.6 8.2-11.6 13.6v13c0 8 1.5 14.3 11.6 14.3 10.2 0 11.1-8.2 11.1-12.4v-.7h-7.7v.7c0 2.9-.4 5.7-3.5 5.7-3 0-3.7-2.8-3.7-5.9v-5.8h15.1c0-2.3 0-6.7 0-9C191.8 23.3 189 17.5 180.5 17.5zM184.2 33.9h-7.5v-4.1c0-3.9 1.2-5.7 3.8-5.7 2.8 0 3.7 2 3.7 5.7V33.9zM209.1 33.3c-3.6-2.3-4.4-3.3-4.4-5.5 0-2.1.8-3.5 2.7-3.5 1.9 0 2.8 1.1 2.8 3.9v2.5h7.6V29c0-7.3-3-11.4-10.5-11.4-6.9 0-10.5 4.1-10.5 10.8 0 5.7 2.6 8.6 8.1 12.1 4.8 3.1 5.5 4.9 5.5 7.4 0 2.6-.9 4-3.1 4-2.5 0-3.2-2.1-3.2-4.6v-1.8h-8v1.8c0 5.7 2 11.3 11 11.3 7.5 0 11.3-3.9 11.3-11.5C218.5 40.5 216.1 37.7 209.1 33.3z"></path>
        <polygon points="101.9,30 92,30 92,9.5 84.1,9.5 84.1,57.9 92,57.9 92,37.3 101.9,37.3 101.9,57.9 109.8,57.9 109.8,9.5 101.9,9.5"></polygon>
        <path d="M401.3,33.3c-3.6-2.3-4.4-3.3-4.4-5.5c0-2.1,0.8-3.5,2.7-3.5c1.9,0,2.8,1.1,2.8,3.9v2.5h7.6V29c0-7.3-3-11.4-10.5-11.4 c-6.9,0-10.5,4.1-10.5,10.8c0,5.7,2.6,8.6,8.1,12.1c4.8,3.1,5.5,4.9,5.5,7.4c0,2.6-0.9,4-3.1,4c-2.5,0-3.2-2.1-3.2-4.6v-1.8h-8 v1.8c0,5.7,2,11.3,11,11.3c7.5,0,11.3-3.9,11.3-11.5C410.7,40.5,408.3,37.7,401.3,33.3z"></path>
        <polygon points="241.5,37.3 241.5,30 241.5,9.5 233.5,9.5 233.5,57.9 241.5,57.9 254.2,57.9 254.2,50.6 241.5,50.6"></polygon>
        <path d="M269.7 17.5c-9.8 0-11.6 8.2-11.6 13.6v13c0 8 1.5 14.3 11.6 14.3s11.6-6.3 11.6-14.3v-13C281.3 25.7 279.6 17.5 269.7 17.5zM269.7 51.8c-3 0-3.9-2.8-3.9-5.9l.1-16.1c0-3.9 1.3-5.7 3.8-5.7s3.8 1.8 3.8 5.7l.1 16.1C273.6 49 272.7 51.8 269.7 51.8zM302.2 46c0 3.1-.9 5.9-3.9 5.9s-3.9-2.8-3.9-5.9l.1-16.1c0-3.9 1.3-5.7 3.8-5.7s3.8 1.8 3.8 5.7l0 .7h7.8c-.1-5.4-2.1-13.1-11.6-13.1-9.8 0-11.6 8.2-11.6 13.6v13c0 8 1.5 14.3 11.6 14.3 9.6 0 11.4-5.6 11.6-13.1h-7.7L302.2 46zM330.2 46c0 3.1-.9 5.9-3.9 5.9s-3.9-2.8-3.9-5.9l.1-27.8h-7.8v26.1c0 8 1.5 14.3 11.6 14.3s11.6-6.3 11.6-14.3V18.2h-7.8L330.2 46zM375.6 17.6c-3.7 0-6.1 2.1-7.4 4.3-1.8-2.9-4.5-4.3-7.3-4.3-3.5 0-6.6 2-7.9 4.3h-.2v-3.7h-7.9v39.7h8.4V28.8c0-3.5 1.6-4.7 3.7-4.7 2.6 0 3.2 1.7 3.2 4v29.8h8.4V28.8c0-3.5 1.6-4.7 3.7-4.7 2.6 0 3.2 1.7 3.2 4v29.8h8.4V26.5C383.8 19.8 380.1 17.6 375.6 17.6z"></path>
      </g>
      <g>
        <path d="M417.9,51.5c0.6,0.3,1,0.8,1.4,1.3c0.3,0.6,0.5,1.2,0.5,1.9s-0.2,1.3-0.5,1.9c-0.3,0.6-0.8,1-1.4,1.3 c-0.6,0.3-1.2,0.5-1.9,0.5c-0.7,0-1.3-0.2-1.9-0.5c-0.6-0.3-1-0.8-1.4-1.3c-0.3-0.6-0.5-1.2-0.5-1.9s0.2-1.3,0.5-1.9 c0.3-0.6,0.8-1,1.4-1.3c0.6-0.3,1.2-0.5,1.9-0.5C416.7,51,417.3,51.1,417.9,51.5z M417.6,57.4c0.5-0.3,0.9-0.7,1.1-1.1 c0.3-0.5,0.4-1,0.4-1.6c0-0.6-0.1-1.1-0.4-1.6c-0.3-0.5-0.7-0.9-1.1-1.1c-0.5-0.3-1-0.4-1.6-0.4c-0.6,0-1.1,0.1-1.6,0.4 c-0.5,0.3-0.9,0.7-1.2,1.1c-0.3,0.5-0.4,1-0.4,1.6c0,0.6,0.1,1.1,0.4,1.6c0.3,0.5,0.7,0.9,1.2,1.1c0.5,0.3,1,0.4,1.6,0.4 C416.6,57.8,417.1,57.7,417.6,57.4z M417,54.5c-0.1,0.2-0.2,0.3-0.4,0.3c0,0-0.1,0,0,0.1l0.5,1.2c0,0,0,0.1,0,0.1 c0,0.1-0.1,0.2-0.2,0.2h-0.1c-0.1,0-0.2-0.1-0.3-0.2l-0.5-1.2c0,0,0-0.1-0.1-0.1h-0.4c-0.1,0-0.1,0-0.1,0.1v1.2 c0,0.1,0,0.1-0.1,0.2c0,0-0.1,0.1-0.2,0.1h-0.1c-0.1,0-0.1,0-0.2-0.1c0,0-0.1-0.1-0.1-0.2v-3c0-0.1,0-0.1,0.1-0.2 c0,0,0.1-0.1,0.2-0.1h0.9c0.3,0,0.5,0.1,0.7,0.3c0.2,0.2,0.3,0.4,0.3,0.7C417.2,54.2,417.1,54.4,417,54.5z M415.5,53.5v0.9 c0,0.1,0,0.1,0.1,0.1h0.5c0.2,0,0.3,0,0.4-0.1c0.1-0.1,0.1-0.2,0.1-0.4c0-0.2,0-0.3-0.1-0.4c-0.1-0.1-0.2-0.2-0.4-0.2L415.5,53.5 C415.6,53.5,415.5,53.5,415.5,53.5z"></path>
      </g>
    </g>
  </switch>
</svg>