<svg xmlns="http://www.w3.org/2000/svg" width="45.609" height="45.416" viewBox="0 0 45.609 45.416">
  <path id="Path_724" data-name="Path 724" d="M71.644,75.005h0l-2.987-2.924h0a1.234,1.234,0,0,0-.851-.357H49.9a1.231,1.231,0,0,0-.85.357h0l-3.008,2.924h0a1.207,1.207,0,0,0-.359.873v4.481a1.2,1.2,0,0,0,1.209,1.209H70.814a1.2,1.2,0,0,0,1.209-1.209V75.878h0a1.237,1.237,0,0,0-.38-.873m6.915-29.327h0c-.333.666-.642,1.257-.944,1.806-.426.772-.906,1.56-1.426,2.343a33.14,33.14,0,0,1-6.568,7.088h0a.041.041,0,0,1-.015.008l-.006,0a.069.069,0,0,1-.023,0h0a.079.079,0,0,1-.023,0l0,0-.011-.006a.068.068,0,0,1-.015-.011l0,0,0-.008-.007-.013,0-.013V56.86a.115.115,0,0,1,0-.015v-.008a11.348,11.348,0,0,0,.606-3.658V40.95l0-.014.005-.014,0-.006a4.856,4.856,0,0,1,8.437,4.762M48.076,56.846l0,.013a.088.088,0,0,1-.007.013l0,.007,0,0a.068.068,0,0,1-.015.011l-.01.006,0,0a.075.075,0,0,1-.023,0h0a.072.072,0,0,1-.023,0l-.006,0-.015-.008,0,0c-.832-.691-1.812-1.525-2.76-2.465a29.305,29.305,0,0,1-3.566-4.283,38.188,38.188,0,0,1-2.612-4.488h0a4.782,4.782,0,0,1-.217-3.522,4.913,4.913,0,0,1,2.236-2.747,4.834,4.834,0,0,1,6.4,1.47l0,.006.006.013a.116.116,0,0,1,0,.015l0,.007V53.18a11.289,11.289,0,0,0,.622,3.63v.008a.054.054,0,0,1,0,.015.1.1,0,0,1,0,.013m31.055-18.8a7.493,7.493,0,0,0-8.867-.768l-.006,0a.042.042,0,0,1-.013.005l-.015,0H47.374l-.015,0-.014-.005-.005,0a7.381,7.381,0,0,0-8.846.768,7.5,7.5,0,0,0-1.8,8.731,36.761,36.761,0,0,0,6.013,8.813,34.4,34.4,0,0,0,5.652,4.764c.163.111.326.227.483.34A11.3,11.3,0,0,0,50,61.446l5.174,2.776a3.618,3.618,0,0,1,2.007,3.706,3.537,3.537,0,0,1-2.288,2.933h7.878a3.615,3.615,0,0,1-.364-6.639l5.173-2.776a31.513,31.513,0,0,0,7.947-6.5c.644-.73,1.259-1.495,1.828-2.273.63-.863,1.231-1.765,1.787-2.68.594-.978,1.173-2.033,1.767-3.224a7.5,7.5,0,0,0-1.778-8.73" transform="translate(-36 -36.152)" fill="#00e676" fill-rule="evenodd"></path>
</svg>