<svg xmlns="http://www.w3.org/2000/svg" width="72" height="47.396" viewBox="0 0 72 47.396">
  <path id="Path_720" data-name="Path 720" d="M106.088,48.748l-1.611-.446-1.106.959-.066,2.52-.8,2.008-4.274,1.594-.555,2.845L95.141,59.32l-.215,1.653L91,64.1l-.831-.277.67-2.375-1.014-2.135-.959.724.385-1.33L87.615,57.24l-2.586,2.077-.083,1.521.885,1.74-.22,2.114-.921.278-1.036-4.477.411-2.428,3.46-1.432-1.151-1.408-2.569,1.032-1.39-.684L80.049,56.9l-1.055-.652,1.189-2L74.07,52.757s-11.812,1.023-16.3.965-16.4-1.9-16.4-1.9L41.164,53.3l-2.651-1.357.262,4.04-1.012,4.259-.934,2.226L36,66.827s2.134,5.8,2.181,7.323,1.767,4.069,3.439,5.016,2.214,3.61,2.214,3.61l3.123.042,5.6,3.256,4.689.06.012-1.065,2.1.027,2.452,2.226,1.011,2.4,1.458.4s.633-1.831,1.9-1.42a6.613,6.613,0,0,1,2.465,1.945L70.8,94.34,73.378,95.7l.932-.878s-.2-.572-.448-1.506.961-2.454.961-2.454l2.6-2.492,3.178-.534,1.041-.326,1.547.694,1.124.036,1.409-.4-.4-.791.428-1.531,1.877.226,1.908-.73,1.981.817,1.894-.97,2.091,1.26.36,1.74.724,1.283,1.74,1.779,1.616,1.411s1.219-.111,1.231-1.092a22.955,22.955,0,0,0-.414-3.139s-2.424-3.345-3.127-4.15-.388-3.2-.388-3.2L98.868,78.2l2.114-3.42,1.577-2.389-.8-2.639-1.04-1.846.933.051.338-1.122-1.218-1.209,1.336.344.352-3.281,1.275-1,.337-.988,1.455-.893,1.262-1.381-2.106-.036.626-2.953,1.826-1.463L108,51.889l-1.217-1.3-.695-1.838" transform="translate(-36 -48.302)" fill="#00e676" fill-rule="evenodd"></path>
</svg>