<svg xmlns="http://www.w3.org/2000/svg" width="61.976" height="57.094" viewBox="0 0 61.976 57.094">
  <g id="Group_1149" data-name="Group 1149" transform="translate(-36 -38.836)">
    <path id="Path_670" data-name="Path 670" d="M82.155,42.374a5.674,5.674,0,0,0,1.006.77c.174.1.34.213.5.3.322.185.621.31.829.417s.343.153.343.153a3.643,3.643,0,0,0,.336-.977,2.779,2.779,0,0,0-.371-2.116,3.553,3.553,0,0,0-.435-.534,4.268,4.268,0,0,0-.544-.447,6.826,6.826,0,0,0-.6-.376,6.2,6.2,0,0,0-.6-.284,7.007,7.007,0,0,0-1.01-.351c-.262-.066-.423-.1-.423-.1a3.512,3.512,0,0,0-.133,1.025,3.468,3.468,0,0,0,.668,2.039A3.509,3.509,0,0,0,82.155,42.374Z" transform="translate(-6.273)" fill="#00e676"></path>
    <path id="Path_671" data-name="Path 671" d="M83.807,46.316a4.211,4.211,0,0,0,.5-.9s-.124-.064-.333-.152a5.34,5.34,0,0,0-.862-.269,4.4,4.4,0,0,0-.554-.1,5.115,5.115,0,0,0-.6-.027,3.1,3.1,0,0,0-.6.059,2.645,2.645,0,0,0-1.966,1.693,4.36,4.36,0,0,0-.309.984s.111.034.3.071.447.1.751.127c.151.018.316.023.484.033a4.2,4.2,0,0,0,.521,0,4.449,4.449,0,0,0,.544-.072,2.837,2.837,0,0,0,.54-.15A3.67,3.67,0,0,0,83.807,46.316Z" transform="translate(-5.998 -0.839)" fill="#00e676"></path>
    <path id="Path_672" data-name="Path 672" d="M87.4,44.046a6.691,6.691,0,0,0,1.661,2.016c.3.246.558.474.757.617s.323.228.323.228a3.824,3.824,0,0,0,.562-.929,2.956,2.956,0,0,0,.085-2.262,4.106,4.106,0,0,0-.8-1.228,6.871,6.871,0,0,0-1.1-.944,10.452,10.452,0,0,0-.971-.584c-.257-.124-.419-.189-.419-.189a3.7,3.7,0,0,0-.355,1.028,3.839,3.839,0,0,0-.06,1.045A3.381,3.381,0,0,0,87.4,44.046Z" transform="translate(-7.111 -0.269)" fill="#00e676"></path>
    <path id="Path_673" data-name="Path 673" d="M75.758,43.754a4.849,4.849,0,0,0,1.194.343,5.667,5.667,0,0,0,2.33-.248c.162-.049.312-.1.446-.151s.249-.089.345-.127c.194-.077.306-.133.306-.133s-.066-.107-.2-.275c-.065-.084-.146-.184-.244-.294s-.213-.218-.343-.335A4.321,4.321,0,0,0,77.32,41.42a3.826,3.826,0,0,0-1.373.061,4.562,4.562,0,0,0-1.12.4,5.143,5.143,0,0,0-1,.651,6.777,6.777,0,0,0,.945.7A7.715,7.715,0,0,0,75.758,43.754Z" transform="translate(-5.267 -0.355)" fill="#00e676"></path>
    <path id="Path_674" data-name="Path 674" d="M83.955,48.453a4.67,4.67,0,0,0-.529.949s.108.056.292.133a5.7,5.7,0,0,0,.739.29,5.82,5.82,0,0,0,1.02.25,3.608,3.608,0,0,0,1.159.007,3.815,3.815,0,0,0,1.917-.979,4.425,4.425,0,0,0,.718-.818s-.114-.09-.312-.225a5.459,5.459,0,0,0-.824-.472,3.9,3.9,0,0,0-2.428-.39,2.664,2.664,0,0,0-1.048.5A3.719,3.719,0,0,0,83.955,48.453Z" transform="translate(-6.603 -1.155)" fill="#00e676"></path>
    <path id="Path_675" data-name="Path 675" d="M94,49.98c.238.334.478.6.638.807s.273.313.273.313a4,4,0,0,0,.794-.823,3.058,3.058,0,0,0,.609-2.306,3.792,3.792,0,0,0-.195-.744,5.6,5.6,0,0,0-.348-.707,6.613,6.613,0,0,0-.92-1.227,7.611,7.611,0,0,0-.875-.819c-.234-.192-.384-.3-.384-.3a3.881,3.881,0,0,0-.6.98,3.808,3.808,0,0,0-.243,2.37A7.106,7.106,0,0,0,94,49.98Z" transform="translate(-7.889 -0.743)" fill="#00e676"></path>
    <path id="Path_676" data-name="Path 676" d="M42.73,69.218c-.039.229-.066.446-.086.642s-.015.372-.018.519c0,.294.015.473.015.473a5.506,5.506,0,0,0,1.325-.16,5.64,5.64,0,0,0,1.187-.423,4.558,4.558,0,0,0,.587-.349,3.814,3.814,0,0,0,.556-.455,3.72,3.72,0,0,0,.449-.544,4.319,4.319,0,0,0,.362-.581,7.639,7.639,0,0,0,.476-1.142,8.165,8.165,0,0,0,.25-.9c.022-.114.04-.207.055-.269l.02-.1a5.891,5.891,0,0,0-1.322-.185,3.654,3.654,0,0,0-2.517.783,3.831,3.831,0,0,0-.906,1.253A5.619,5.619,0,0,0,42.73,69.218Z" transform="translate(-0.922 -3.747)" fill="#00e676"></path>
    <path id="Path_677" data-name="Path 677" d="M54.1,48.06c-.2.134-.312.225-.312.225a4.385,4.385,0,0,0,.718.818,3.814,3.814,0,0,0,1.917.979,3.608,3.608,0,0,0,1.159-.007,5.82,5.82,0,0,0,1.02-.25,5.7,5.7,0,0,0,.739-.29c.184-.077.292-.133.292-.133a4.67,4.67,0,0,0-.529-.949,3.719,3.719,0,0,0-.7-.75,2.664,2.664,0,0,0-1.048-.5,3.9,3.9,0,0,0-2.428.39A5.459,5.459,0,0,0,54.1,48.06Z" transform="translate(-2.476 -1.155)" fill="#00e676"></path>
    <path id="Path_678" data-name="Path 678" d="M62.375,45.107a2.876,2.876,0,0,0-.577-.187,3.1,3.1,0,0,0-.6-.059,5.115,5.115,0,0,0-.6.027,4.4,4.4,0,0,0-.554.1,5.34,5.34,0,0,0-.862.269c-.209.089-.332.152-.332.152a4.181,4.181,0,0,0,.5.9,3.67,3.67,0,0,0,1.588,1.292,2.836,2.836,0,0,0,.54.15,4.449,4.449,0,0,0,.544.072,4.2,4.2,0,0,0,.521,0c.168-.009.332-.015.484-.033.3-.03.56-.1.751-.127s.3-.071.3-.071a4.36,4.36,0,0,0-.309-.984A2.856,2.856,0,0,0,62.375,45.107Z" transform="translate(-3.181 -0.839)" fill="#00e676"></path>
    <path id="Path_679" data-name="Path 679" d="M62.561,43.438s.113.056.306.133c.1.039.213.083.345.127s.284.1.445.151a5.673,5.673,0,0,0,2.331.248,4.849,4.849,0,0,0,1.194-.343,7.715,7.715,0,0,0,.984-.528,6.777,6.777,0,0,0,.945-.7,5.143,5.143,0,0,0-1-.651,4.562,4.562,0,0,0-1.12-.4,3.826,3.826,0,0,0-1.373-.061,4.321,4.321,0,0,0-2.277,1.115c-.131.117-.245.231-.343.335s-.178.209-.244.294C62.627,43.331,62.561,43.438,62.561,43.438Z" transform="translate(-3.698 -0.355)" fill="#00e676"></path>
    <path id="Path_680" data-name="Path 680" d="M58.489,44.017s.133-.053.343-.153.507-.232.829-.417c.162-.09.328-.2.5-.3a5.674,5.674,0,0,0,1.006-.77,3.508,3.508,0,0,0,.43-.473,3.467,3.467,0,0,0,.668-2.039,3.512,3.512,0,0,0-.133-1.025s-.161.03-.423.1a7.049,7.049,0,0,0-1.011.351,6.285,6.285,0,0,0-.6.284,6.827,6.827,0,0,0-.6.376,4.268,4.268,0,0,0-.544.447,3.5,3.5,0,0,0-.435.534,2.779,2.779,0,0,0-.371,2.116A3.643,3.643,0,0,0,58.489,44.017Z" transform="translate(-3.075)" fill="#00e676"></path>
    <path id="Path_681" data-name="Path 681" d="M94.321,54.814a3.329,3.329,0,0,0-2.344.438,5.235,5.235,0,0,0-.977.7l.222.269a6.548,6.548,0,0,0,.6.624,5.135,5.135,0,0,0,2.025,1.273,3.824,3.824,0,0,0,1.261.138,5.192,5.192,0,0,0,2.231-.644s-.066-.147-.193-.38a6.982,6.982,0,0,0-.593-.87,5.67,5.67,0,0,0-.966-.947A3.626,3.626,0,0,0,94.321,54.814Z" transform="translate(-7.657 -2.216)" fill="#00e676"></path>
    <path id="Path_682" data-name="Path 682" d="M89.425,53.338a3.881,3.881,0,0,0,.575.173,3.264,3.264,0,0,0,.609.095,4.12,4.12,0,0,0,2.192-.565,4.649,4.649,0,0,0,.926-.671s-.095-.121-.264-.307a5.7,5.7,0,0,0-.739-.674,4.072,4.072,0,0,0-2.4-.955,3.179,3.179,0,0,0-2.081.9,4.88,4.88,0,0,0-.754.856s.095.085.262.209.413.278.692.456A7.127,7.127,0,0,0,89.425,53.338Z" transform="translate(-7.168 -1.615)" fill="#00e676"></path>
    <path id="Path_683" data-name="Path 683" d="M86.031,87.431c-.171-.238-.288-.374-.288-.374l-.352.255c-.108.082-.234.182-.371.3s-.3.244-.452.4a7.069,7.069,0,0,0-1.8,2.487c-.052.137-.1.276-.135.417s-.075.272-.1.41a5.844,5.844,0,0,0-.109.83,7.552,7.552,0,0,0,.071,1.545,7.454,7.454,0,0,0,.257,1.138,4.543,4.543,0,0,0,.159.443l.148-.046a3.968,3.968,0,0,0,.4-.152,7.732,7.732,0,0,0,1.27-.657,6.764,6.764,0,0,0,1.408-1.173,5.918,5.918,0,0,0,.564-.772,3.74,3.74,0,0,0,.377-.869,3.653,3.653,0,0,0,.069-1.738,5.4,5.4,0,0,0-.5-1.444A7.884,7.884,0,0,0,86.031,87.431Z" transform="translate(-6.461 -6.713)" fill="#00e676"></path>
    <path id="Path_684" data-name="Path 684" d="M103,65.757a6.017,6.017,0,0,0-.572,1.567,13.554,13.554,0,0,0-.257,1.547c-.027.238-.043.462-.053.664l-.035.533c-.015.3-.009.485-.009.485a4.614,4.614,0,0,0,1.331-.075,3.96,3.96,0,0,0,1.209-.445,3.441,3.441,0,0,0,.605-.441,3.523,3.523,0,0,0,.528-.634,4.585,4.585,0,0,0,.414-.809,6.582,6.582,0,0,0,.25-.9,8.032,8.032,0,0,0,.147-1.824,11,11,0,0,0-.145-1.427c-.028-.179-.057-.322-.082-.419l-.039-.151a4.433,4.433,0,0,0-1.268.414A4.512,4.512,0,0,0,103,65.757Z" transform="translate(-9.198 -3.423)" fill="#00e676"></path>
    <path id="Path_685" data-name="Path 685" d="M100.863,60.079a7.674,7.674,0,0,0,.045.77c.029.248.065.486.092.714.059.453.162.838.211,1.12s.106.449.106.449a4.447,4.447,0,0,0,1.2-.4,3.355,3.355,0,0,0,1.781-1.963,6.046,6.046,0,0,0-.1-3.429,12.05,12.05,0,0,0-.47-1.268c-.065-.158-.134-.277-.176-.362l-.07-.128a4.207,4.207,0,0,0-1.07.68,4.278,4.278,0,0,0-1.407,2.239A5.56,5.56,0,0,0,100.863,60.079Z" transform="translate(-9.029 -2.332)" fill="#00e676"></path>
    <path id="Path_686" data-name="Path 686" d="M89.63,89.729a7.227,7.227,0,0,0,.575.95,4.457,4.457,0,0,0,.278.351s.17-.121.435-.339a8.864,8.864,0,0,0,.952-.97,5.24,5.24,0,0,0,1.306-3.236,3.689,3.689,0,0,0-.433-1.6,5.286,5.286,0,0,0-.877-1.174,7.3,7.3,0,0,0-.833-.73c-.223-.168-.367-.257-.367-.257a4.2,4.2,0,0,0-.244.342,8.755,8.755,0,0,0-.557.882,6.545,6.545,0,0,0-.924,2.806,5.032,5.032,0,0,0,.171,1.605A6.754,6.754,0,0,0,89.63,89.729Z" transform="translate(-7.369 -6.111)" fill="#00e676"></path>
    <path id="Path_687" data-name="Path 687" d="M94.291,61.7a5.374,5.374,0,0,0,1.734,1.79,4.676,4.676,0,0,0,2.438.561,5.209,5.209,0,0,0,1.255-.177s-.029-.167-.1-.438a6.641,6.641,0,0,0-.379-1.041,4.3,4.3,0,0,0-.325-.612,6.33,6.33,0,0,0-.419-.6,3.709,3.709,0,0,0-1.14-.934,3.478,3.478,0,0,0-2.5-.128,5.55,5.55,0,0,0-1.172.481l.04.088c.026.056.073.134.12.236A6.27,6.27,0,0,0,94.291,61.7Z" transform="translate(-8.031 -2.939)" fill="#00e676"></path>
    <path id="Path_688" data-name="Path 688" d="M100.5,70.853s.014-.179.014-.473c0-.147,0-.323-.017-.519s-.047-.413-.086-.642a5.619,5.619,0,0,0-.433-1.433,3.831,3.831,0,0,0-.906-1.253,3.655,3.655,0,0,0-2.518-.783,5.888,5.888,0,0,0-1.321.185l.02.1c.015.063.033.155.055.269a8.162,8.162,0,0,0,.25.9,7.64,7.64,0,0,0,.476,1.142,4.321,4.321,0,0,0,.362.581,3.721,3.721,0,0,0,.449.544,3.861,3.861,0,0,0,.556.455,4.5,4.5,0,0,0,.587.349,5.651,5.651,0,0,0,1.186.423A5.515,5.515,0,0,0,100.5,70.853Z" transform="translate(-8.247 -3.747)" fill="#00e676"></path>
    <path id="Path_689" data-name="Path 689" d="M98.12,55.182c.16.4.339.737.456.982s.2.389.2.389a4.222,4.222,0,0,0,1.016-.647,3.65,3.65,0,0,0,.761-.883,3.059,3.059,0,0,0,.424-1.335,5.75,5.75,0,0,0-.867-3.117,10.907,10.907,0,0,0-.712-1.054,3.637,3.637,0,0,0-.239-.294l-.092-.1a4.233,4.233,0,0,0-1.639,3.243,5.14,5.14,0,0,0,.223,1.483A9.959,9.959,0,0,0,98.12,55.182Z" transform="translate(-8.552 -1.432)" fill="#00e676"></path>
    <path id="Path_690" data-name="Path 690" d="M94.914,84.111a6.111,6.111,0,0,0,1.141.936l.084-.111a3.747,3.747,0,0,0,.211-.321c.084-.139.182-.308.286-.5.051-.1.106-.2.157-.306s.1-.225.145-.344a4.945,4.945,0,0,0,.288-3.305,3.494,3.494,0,0,0-.83-1.335,5.024,5.024,0,0,0-1.12-.831,6.57,6.57,0,0,0-1.361-.572s-.059.141-.131.382a7.8,7.8,0,0,0-.264.968,6.19,6.19,0,0,0-.073,2.828,4.883,4.883,0,0,0,.6,1.413A6.627,6.627,0,0,0,94.914,84.111Z" transform="translate(-7.979 -5.372)" fill="#00e676"></path>
    <path id="Path_691" data-name="Path 691" d="M99.387,78.1l.046-.125a2.962,2.962,0,0,0,.106-.349c.039-.15.081-.33.122-.533a5,5,0,0,0,.1-.673c.021-.244.034-.5.033-.766a5.006,5.006,0,0,0-.077-.809,3.783,3.783,0,0,0-.578-1.521,2.781,2.781,0,0,0-.516-.584,3.549,3.549,0,0,0-.6-.423,4.653,4.653,0,0,0-1.227-.47,6.542,6.542,0,0,0-.989-.153c-.25-.019-.4-.017-.4-.017a.914.914,0,0,1-.009.1c-.007.067-.015.164-.022.287-.015.242,0,.584.01.969a5.88,5.88,0,0,0,.064.616,4.941,4.941,0,0,0,.111.66c.027.112.059.226.094.34s.065.226.107.339a3.966,3.966,0,0,0,.317.673,5.246,5.246,0,0,0,2.013,1.893A5.775,5.775,0,0,0,99.387,78.1Z" transform="translate(-8.266 -4.572)" fill="#00e676"></path>
    <path id="Path_692" data-name="Path 692" d="M47,63.49a5.377,5.377,0,0,0,1.735-1.79,6.269,6.269,0,0,0,.449-.776c.046-.1.094-.18.12-.236l.04-.088a5.55,5.55,0,0,0-1.172-.481,3.48,3.48,0,0,0-2.5.128,3.716,3.716,0,0,0-1.139.934,6.33,6.33,0,0,0-.419.6,4.3,4.3,0,0,0-.325.612,6.642,6.642,0,0,0-.379,1.041c-.07.271-.1.438-.1.438a5.209,5.209,0,0,0,1.255.177A4.671,4.671,0,0,0,47,63.49Z" transform="translate(-1.017 -2.939)" fill="#00e676"></path>
    <path id="Path_693" data-name="Path 693" d="M43.63,55.906a4.222,4.222,0,0,0,1.016.647s.083-.144.2-.389.3-.579.456-.982a9.959,9.959,0,0,0,.468-1.334A5.141,5.141,0,0,0,46,52.364a4.233,4.233,0,0,0-1.639-3.243l-.092.1a3.634,3.634,0,0,0-.239.294,10.9,10.9,0,0,0-.712,1.054,5.75,5.75,0,0,0-.867,3.117,3.059,3.059,0,0,0,.424,1.335A3.65,3.65,0,0,0,43.63,55.906Z" transform="translate(-0.896 -1.432)" fill="#00e676"></path>
    <path id="Path_694" data-name="Path 694" d="M69.038,95.29a7.813,7.813,0,0,0-.469-1.559,6.089,6.089,0,0,0-.4-.78,5.247,5.247,0,0,0-.521-.744,5.972,5.972,0,0,0-1.29-1.126,5.553,5.553,0,0,0-.671-.4c-.22-.117-.433-.233-.638-.32l-.571-.243c-.175-.07-.332-.124-.465-.165-.261-.1-.425-.141-.425-.141s-.07.174-.161.468a8.246,8.246,0,0,0-.275,1.2,5.76,5.76,0,0,0-.028,1.618,3.943,3.943,0,0,0,.649,1.706,5.568,5.568,0,0,0,3.3,1.991c.292.065.57.114.821.153s.48.043.67.054c.38.019.611.013.611.013a4.816,4.816,0,0,0,0-.5A8.136,8.136,0,0,0,69.038,95.29Z" transform="translate(-3.771 -7.097)" fill="#00e676"></path>
    <path id="Path_695" data-name="Path 695" d="M77.3,79.821a14.775,14.775,0,0,0,3.79-5.659,23.767,23.767,0,0,0,1.364-6.791c.183-2.447.157-5.025.13-7.755-.009-.861-.017-1.747-.02-2.638a35.7,35.7,0,0,0-3.667-.941,45.608,45.608,0,0,0-9.167-.933,40.5,40.5,0,0,0-12.388,1.881c0,.89-.011,1.773-.02,2.631-.028,2.73-.053,5.308.13,7.755a23.767,23.767,0,0,0,1.364,6.791,14.764,14.764,0,0,0,3.791,5.658A18.68,18.68,0,0,0,65.82,82.2a27.628,27.628,0,0,0,4.135,1.986,27.771,27.771,0,0,0,4.133-1.985A18.812,18.812,0,0,0,77.3,79.821Z" transform="translate(-2.966 -2.265)" fill="#00e676"></path>
    <path id="Path_696" data-name="Path 696" d="M74.448,97c.19-.011.417-.022.67-.054s.529-.089.821-.153a5.568,5.568,0,0,0,3.3-1.991,3.943,3.943,0,0,0,.649-1.706,5.76,5.76,0,0,0-.028-1.618,8.247,8.247,0,0,0-.275-1.2c-.091-.294-.161-.468-.161-.468s-.164.043-.425.141c-.133.041-.29.1-.465.165l-.571.243c-.2.087-.417.2-.639.32a5.612,5.612,0,0,0-.671.4,5.972,5.972,0,0,0-1.29,1.126,5.247,5.247,0,0,0-.521.744,6.091,6.091,0,0,0-.4.78,7.813,7.813,0,0,0-.469,1.559,8.136,8.136,0,0,0-.142,1.226,4.819,4.819,0,0,0,0,.5S74.068,97.017,74.448,97Z" transform="translate(-5.267 -7.097)" fill="#00e676"></path>
    <path id="Path_697" data-name="Path 697" d="M67.949,98.872c-.2,0-.429.007-.69.013s-.552.006-.861.025a12.754,12.754,0,0,0-4.122.746,5.854,5.854,0,0,0-1.691,1.058,6.35,6.35,0,0,0-1.094,1.271,6.082,6.082,0,0,0-.568,1.1,3.659,3.659,0,0,0-.156.471s.279.109.749.252c.238.064.522.136.844.207a9.166,9.166,0,0,0,1.062.183c.384.043.788.087,1.206.093a12.523,12.523,0,0,0,1.267-.056,6.4,6.4,0,0,0,2.356-.706,4.539,4.539,0,0,0,.884-.639,4.395,4.395,0,0,0,.622-.753,4.9,4.9,0,0,0,.653-1.53,6.2,6.2,0,0,0,.168-1.218,4.524,4.524,0,0,0,0-.5S68.338,98.872,67.949,98.872Z" transform="translate(-3.17 -8.358)" fill="#00e676"></path>
    <path id="Path_698" data-name="Path 698" d="M58.427,98.567a5.9,5.9,0,0,0,.536-1.043,4.34,4.34,0,0,0,.154-.446l-.558-.207c-.348-.13-.842-.28-1.4-.457a17.782,17.782,0,0,0-1.876-.453,7.878,7.878,0,0,0-1.018-.138,7.239,7.239,0,0,0-1.031-.014,5.788,5.788,0,0,0-1.838.44,6.033,6.033,0,0,0-1.371.824,5.865,5.865,0,0,0-.84.816,3.624,3.624,0,0,0-.282.378l.153.125c.1.077.252.185.442.316s.42.282.683.444.568.317.892.479a7.743,7.743,0,0,0,4.508.88,4.556,4.556,0,0,0,.52-.12,4.363,4.363,0,0,0,.472-.182,4.186,4.186,0,0,0,.791-.474A4.587,4.587,0,0,0,58.427,98.567Z" transform="translate(-1.796 -7.93)" fill="#00e676"></path>
    <path id="Path_699" data-name="Path 699" d="M82.921,101.985a6.322,6.322,0,0,0-1.094-1.271,5.866,5.866,0,0,0-1.691-1.058,12.753,12.753,0,0,0-4.121-.746c-.31-.019-.6-.026-.862-.025s-.495-.015-.69-.013c-.389,0-.627.018-.627.018a4.7,4.7,0,0,0,0,.5A6.2,6.2,0,0,0,74,100.6a4.9,4.9,0,0,0,.653,1.53,4.4,4.4,0,0,0,.622.753,4.539,4.539,0,0,0,.884.639,6.4,6.4,0,0,0,2.356.706,12.523,12.523,0,0,0,1.267.056c.417-.006.822-.05,1.206-.093a9.166,9.166,0,0,0,1.062-.183c.321-.071.606-.143.844-.207.47-.143.749-.252.749-.252a3.723,3.723,0,0,0-.155-.471A6.152,6.152,0,0,0,82.921,101.985Z" transform="translate(-5.267 -8.358)" fill="#00e676"></path>
    <path id="Path_700" data-name="Path 700" d="M106.985,72.274a3.071,3.071,0,0,0-.4-.022,5.182,5.182,0,0,0-2.3.541,4.514,4.514,0,0,0-.66.405,5.58,5.58,0,0,0-.63.557,7.071,7.071,0,0,0-1.011,1.438c-.142.255-.253.516-.374.766s-.223.5-.313.734l-.249.657c-.073.2-.133.38-.18.532s-.083.274-.112.357l-.04.13a4.856,4.856,0,0,0,1.373.306,3.992,3.992,0,0,0,1.35-.108,3.59,3.59,0,0,0,1.461-.776,4.839,4.839,0,0,0,.638-.716q.146-.2.279-.412c.083-.144.161-.291.235-.441a9.826,9.826,0,0,0,.393-.919c.1-.31.187-.617.259-.912a9.61,9.61,0,0,0,.244-1.5c.018-.191.028-.345.034-.451A1.389,1.389,0,0,0,106.985,72.274Z" transform="translate(-9.01 -4.652)" fill="#00e676"></path>
    <path id="Path_701" data-name="Path 701" d="M102.357,81.343a4.756,4.756,0,0,0-1.592.6,10.181,10.181,0,0,0-2.59,2.468c-.082.105-.158.208-.231.308L97.729,85c-.135.18-.25.343-.343.482l-.3.446a5.12,5.12,0,0,0,1.291.724,4.187,4.187,0,0,0,1.394.3,3.69,3.69,0,0,0,1.708-.35,7.106,7.106,0,0,0,2.851-2.924,13.15,13.15,0,0,0,.689-1.465c.14-.384.21-.623.21-.623a4.843,4.843,0,0,0-1.445-.325A5.219,5.219,0,0,0,102.357,81.343Z" transform="translate(-8.505 -5.904)" fill="#00e676"></path>
    <path id="Path_702" data-name="Path 702" d="M50.213,93.582a5.64,5.64,0,0,0,.8-.777,4.043,4.043,0,0,0,.273-.355s-.162-.14-.443-.351-.664-.517-1.129-.828a10.621,10.621,0,0,0-3.37-1.689,5.012,5.012,0,0,0-1.787-.126,5.634,5.634,0,0,0-2.462.853,3.457,3.457,0,0,0-.363.262s.144.221.4.569a13.242,13.242,0,0,0,1.151,1.273A7.463,7.463,0,0,0,47.068,94.5a3.959,3.959,0,0,0,1.831-.175A4.586,4.586,0,0,0,50.213,93.582Z" transform="translate(-0.797 -7.043)" fill="#00e676"></path>
    <path id="Path_703" data-name="Path 703" d="M92.325,97.073a6.033,6.033,0,0,0-1.371-.824,5.788,5.788,0,0,0-1.838-.44,7.239,7.239,0,0,0-1.031.014,7.878,7.878,0,0,0-1.018.138,17.782,17.782,0,0,0-1.876.453c-.56.177-1.055.327-1.4.457l-.558.207a4.437,4.437,0,0,0,.153.446,5.971,5.971,0,0,0,.537,1.043,4.587,4.587,0,0,0,1.067,1.167,4.159,4.159,0,0,0,.791.474,4.363,4.363,0,0,0,.472.182,4.583,4.583,0,0,0,.519.12,7.745,7.745,0,0,0,4.509-.88c.324-.162.628-.318.892-.479s.492-.314.683-.444.341-.238.442-.316l.153-.125a3.625,3.625,0,0,0-.282-.378A5.865,5.865,0,0,0,92.325,97.073Z" transform="translate(-6.575 -7.93)" fill="#00e676"></path>
    <path id="Path_704" data-name="Path 704" d="M99.369,89.807a5.556,5.556,0,0,0-1.467-.35,5.012,5.012,0,0,0-1.787.126,10.621,10.621,0,0,0-3.37,1.689c-.466.311-.851.612-1.129.828s-.443.351-.443.351a4.045,4.045,0,0,0,.273.355,5.639,5.639,0,0,0,.8.777,4.574,4.574,0,0,0,1.314.741,3.959,3.959,0,0,0,1.831.175,7.463,7.463,0,0,0,3.787-2.085,13.244,13.244,0,0,0,1.151-1.273c.259-.348.4-.569.4-.569a3.458,3.458,0,0,0-.363-.262A5.608,5.608,0,0,0,99.369,89.807Z" transform="translate(-7.681 -7.043)" fill="#00e676"></path>
    <path id="Path_705" data-name="Path 705" d="M43.623,77.092c.041.2.083.383.122.533a2.966,2.966,0,0,0,.106.349l.046.125a5.775,5.775,0,0,0,1.294-.541A5.246,5.246,0,0,0,47.2,75.665a3.967,3.967,0,0,0,.317-.673c.041-.113.077-.226.107-.339s.067-.228.094-.34a4.942,4.942,0,0,0,.111-.66,5.881,5.881,0,0,0,.064-.616c.009-.386.026-.727.01-.969-.006-.122-.015-.219-.022-.287a.914.914,0,0,1-.009-.1s-.153,0-.4.017a6.542,6.542,0,0,0-.989.153,4.653,4.653,0,0,0-1.227.47,3.55,3.55,0,0,0-.6.423,2.782,2.782,0,0,0-.516.584,3.783,3.783,0,0,0-.578,1.521,5.006,5.006,0,0,0-.077.809c0,.264.012.522.033.766A5,5,0,0,0,43.623,77.092Z" transform="translate(-1.043 -4.572)" fill="#00e676"></path>
    <path id="Path_706" data-name="Path 706" d="M55.242,52.4c.167-.124.262-.209.262-.209a4.88,4.88,0,0,0-.754-.856,3.181,3.181,0,0,0-2.081-.9,4.072,4.072,0,0,0-2.4.955,5.7,5.7,0,0,0-.739.674c-.17.186-.264.307-.264.307a4.649,4.649,0,0,0,.926.671,4.12,4.12,0,0,0,2.192.565,3.264,3.264,0,0,0,.609-.095,3.881,3.881,0,0,0,.575-.173,7.079,7.079,0,0,0,.984-.484C54.829,52.676,55.077,52.525,55.242,52.4Z" transform="translate(-1.847 -1.615)" fill="#00e676"></path>
    <path id="Path_707" data-name="Path 707" d="M56.524,92.48a6,6,0,0,0,.564.772A6.764,6.764,0,0,0,58.5,94.425a7.732,7.732,0,0,0,1.27.657,3.967,3.967,0,0,0,.4.152l.148.046a4.659,4.659,0,0,0,.16-.443,7.661,7.661,0,0,0,.327-2.683,5.846,5.846,0,0,0-.109-.83c-.029-.138-.064-.274-.1-.41s-.083-.28-.135-.417a7.059,7.059,0,0,0-1.8-2.487c-.157-.151-.314-.275-.452-.4s-.263-.222-.371-.3l-.352-.255s-.116.135-.287.374a7.884,7.884,0,0,0-.609,1,5.4,5.4,0,0,0-.5,1.444,3.653,3.653,0,0,0,.069,1.738A3.741,3.741,0,0,0,56.524,92.48Z" transform="translate(-2.785 -6.713)" fill="#00e676"></path>
    <path id="Path_708" data-name="Path 708" d="M46.546,83.809c.051.108.106.209.157.306.1.192.2.361.286.5a3.747,3.747,0,0,0,.211.321l.084.111a6.111,6.111,0,0,0,1.141-.936,6.627,6.627,0,0,0,.863-1.1,4.883,4.883,0,0,0,.6-1.413,6.19,6.19,0,0,0-.073-2.828,7.8,7.8,0,0,0-.264-.968c-.072-.241-.131-.382-.131-.382a6.57,6.57,0,0,0-1.361.572,5.024,5.024,0,0,0-1.12.831,3.494,3.494,0,0,0-.83,1.335,4.945,4.945,0,0,0,.288,3.305C46.449,83.584,46.5,83.7,46.546,83.809Z" transform="translate(-1.384 -5.372)" fill="#00e676"></path>
    <path id="Path_709" data-name="Path 709" d="M52.4,90.692c.264.219.435.339.435.339a4.459,4.459,0,0,0,.278-.351,7.228,7.228,0,0,0,.575-.95,6.754,6.754,0,0,0,.519-1.367,5.032,5.032,0,0,0,.171-1.605,6.534,6.534,0,0,0-.925-2.806,8.618,8.618,0,0,0-.556-.882,4.2,4.2,0,0,0-.244-.342s-.144.09-.367.257a7.3,7.3,0,0,0-.833.73,5.286,5.286,0,0,0-.877,1.174,3.69,3.69,0,0,0-.433,1.6,5.24,5.24,0,0,0,1.306,3.236A8.864,8.864,0,0,0,52.4,90.692Z" transform="translate(-1.968 -6.111)" fill="#00e676"></path>
    <path id="Path_710" data-name="Path 710" d="M53.224,46.907s.126-.081.323-.228.457-.371.757-.617a6.678,6.678,0,0,0,1.661-2.016,3.4,3.4,0,0,0,.313-1.2,3.871,3.871,0,0,0-.061-1.045,3.7,3.7,0,0,0-.355-1.028s-.162.065-.419.189a10.453,10.453,0,0,0-.971.584,6.871,6.871,0,0,0-1.1.944,4.123,4.123,0,0,0-.8,1.228,2.96,2.96,0,0,0,.085,2.262A3.824,3.824,0,0,0,53.224,46.907Z" transform="translate(-2.282 -0.269)" fill="#00e676"></path>
    <path id="Path_711" data-name="Path 711" d="M38.087,77.79a3.59,3.59,0,0,0,1.461.776,3.992,3.992,0,0,0,1.35.108,4.856,4.856,0,0,0,1.373-.306l-.04-.13c-.028-.083-.067-.2-.112-.357s-.107-.332-.18-.532l-.249-.657c-.09-.235-.194-.482-.313-.734s-.232-.511-.374-.766a7.072,7.072,0,0,0-1.011-1.437,5.58,5.58,0,0,0-.63-.557,4.514,4.514,0,0,0-.66-.405,5.182,5.182,0,0,0-2.3-.541,3.071,3.071,0,0,0-.4.022,1.39,1.39,0,0,0,0,.164c.006.106.016.26.034.451a9.713,9.713,0,0,0,.244,1.5c.072.294.157.6.259.912a9.826,9.826,0,0,0,.393.919c.074.15.151.3.235.441s.182.28.279.412A4.838,4.838,0,0,0,38.087,77.79Z" transform="translate(0 -4.652)" fill="#00e676"></path>
    <path id="Path_712" data-name="Path 712" d="M37.118,68.149a4.584,4.584,0,0,0,.414.809,3.523,3.523,0,0,0,.528.634,3.442,3.442,0,0,0,.605.441,3.96,3.96,0,0,0,1.209.445,4.614,4.614,0,0,0,1.331.075s.005-.183-.009-.485c-.01-.151-.022-.331-.036-.533s-.026-.425-.053-.664a13.554,13.554,0,0,0-.257-1.547,6.017,6.017,0,0,0-.572-1.567,4.512,4.512,0,0,0-2.022-1.918,4.433,4.433,0,0,0-1.268-.414l-.039.151c-.025.1-.054.24-.082.419a11,11,0,0,0-.145,1.427,8.032,8.032,0,0,0,.147,1.824A6.582,6.582,0,0,0,37.118,68.149Z" transform="translate(-0.1 -3.423)" fill="#00e676"></path>
    <path id="Path_713" data-name="Path 713" d="M42.91,86.949a4.187,4.187,0,0,0,1.394-.3,5.137,5.137,0,0,0,1.292-.724l-.3-.446c-.094-.139-.208-.3-.343-.482l-.215-.281c-.072-.1-.149-.2-.231-.308a10.181,10.181,0,0,0-2.59-2.468,4.753,4.753,0,0,0-1.592-.6,5.212,5.212,0,0,0-1.427-.081,4.843,4.843,0,0,0-1.445.325s.07.239.21.623a13.152,13.152,0,0,0,.689,1.465A7.106,7.106,0,0,0,41.2,86.6,3.69,3.69,0,0,0,42.91,86.949Z" transform="translate(-0.202 -5.904)" fill="#00e676"></path>
    <path id="Path_714" data-name="Path 714" d="M48.49,51.1s.109-.114.274-.313.4-.473.638-.807a7.106,7.106,0,0,0,1.246-2.455,3.808,3.808,0,0,0-.243-2.37,3.881,3.881,0,0,0-.6-.98s-.15.107-.384.3a7.611,7.611,0,0,0-.875.819,6.613,6.613,0,0,0-.92,1.227,5.6,5.6,0,0,0-.348.707,3.793,3.793,0,0,0-.195.744,3.062,3.062,0,0,0,.608,2.306A4.028,4.028,0,0,0,48.49,51.1Z" transform="translate(-1.539 -0.743)" fill="#00e676"></path>
    <path id="Path_715" data-name="Path 715" d="M45.831,57.236c-.127.233-.193.38-.193.38a5.192,5.192,0,0,0,2.231.644,3.823,3.823,0,0,0,1.261-.138,5.135,5.135,0,0,0,2.025-1.273,6.549,6.549,0,0,0,.6-.624l.222-.269a5.235,5.235,0,0,0-.977-.7,3.329,3.329,0,0,0-2.344-.438,3.626,3.626,0,0,0-1.264.605,5.67,5.67,0,0,0-.966.947A6.982,6.982,0,0,0,45.831,57.236Z" transform="translate(-1.342 -2.216)" fill="#00e676"></path>
    <path id="Path_716" data-name="Path 716" d="M40.888,62.736a4.447,4.447,0,0,0,1.2.4s.048-.168.106-.449.151-.667.211-1.12c.028-.227.063-.466.091-.714a7.424,7.424,0,0,0,.046-.77A5.559,5.559,0,0,0,42.4,58.5a4.278,4.278,0,0,0-1.407-2.239,4.207,4.207,0,0,0-1.07-.68l-.07.128c-.042.084-.111.2-.177.362a12.268,12.268,0,0,0-.469,1.268,6.053,6.053,0,0,0-.1,3.429A3.355,3.355,0,0,0,40.888,62.736Z" transform="translate(-0.404 -2.332)" fill="#00e676"></path>
  </g>
</svg>